<svg width="19" height="19" viewBox="0 0 19 19" fill="none" xmlns="http://www.w3.org/2000/svg">
<path d="M0.59375 0.696075C0.267188 0.696075 0 0.963428 0 1.29019C0 1.61696 0.267188 1.88431 0.59375 1.88431H2.90937L3.41406 3.75578C3.41406 3.78549 3.41406 3.81519 3.41406 3.81519L5.31406 10.9149C5.31406 10.9149 5.31406 10.9149 5.31406 10.9446L5.9375 13.3211C5.99687 13.5884 6.23438 13.7667 6.50156 13.7667H16.0016C16.3281 13.7667 16.5953 13.4993 16.5953 13.1725C16.5953 12.8458 16.3281 12.5784 16.0016 12.5784H6.97656L6.65 11.3308L17.2484 10.7961C17.5156 10.7961 17.7531 10.5881 17.8125 10.3208L19 3.78549C19.0297 3.60725 18.9703 3.42902 18.8813 3.31019C18.7625 3.16166 18.5844 3.07255 18.4062 3.07255H4.45312L3.94844 1.14166C3.85937 0.874311 3.62187 0.696075 3.35469 0.696075H0.59375ZM7.71875 5.44902C8.04531 5.44902 8.3125 5.71637 8.3125 6.04313V8.41961C8.3125 8.74637 8.04531 9.01372 7.71875 9.01372C7.39219 9.01372 7.125 8.74637 7.125 8.41961V6.04313C7.125 5.71637 7.39219 5.44902 7.71875 5.44902ZM11.2812 5.44902C11.6078 5.44902 11.875 5.71637 11.875 6.04313V8.41961C11.875 8.74637 11.6078 9.01372 11.2812 9.01372C10.9547 9.01372 10.6875 8.74637 10.6875 8.41961V6.04313C10.6875 5.71637 10.9547 5.44902 11.2812 5.44902ZM14.8438 5.44902C15.1703 5.44902 15.4375 5.71637 15.4375 6.04313V8.41961C15.4375 8.74637 15.1703 9.01372 14.8438 9.01372C14.5172 9.01372 14.25 8.74637 14.25 8.41961V6.04313C14.25 5.71637 14.5172 5.44902 14.8438 5.44902ZM7.71875 14.9549C6.73906 14.9549 5.9375 15.757 5.9375 16.7373C5.9375 17.7175 6.73906 18.5196 7.71875 18.5196C8.69844 18.5196 9.5 17.7175 9.5 16.7373C9.5 15.757 8.69844 14.9549 7.71875 14.9549ZM14.8438 14.9549C13.8641 14.9549 13.0625 15.757 13.0625 16.7373C13.0625 17.7175 13.8641 18.5196 14.8438 18.5196C15.8234 18.5196 16.625 17.7175 16.625 16.7373C16.625 15.757 15.8234 14.9549 14.8438 14.9549Z" fill="black"/>
</svg>
